<?xml version="1.0" standalone="no"?>
<!DOCTYPE svg PUBLIC "-//W3C//DTD SVG 20010904//EN"
 "http://www.w3.org/TR/2001/REC-SVG-20010904/DTD/svg10.dtd">
<svg version="1.0" xmlns="http://www.w3.org/2000/svg"
 width="400.000000pt" height="400.000000pt" viewBox="0 0 400.000000 400.000000"
 preserveAspectRatio="xMidYMid meet">
<metadata>
Created by potrace 1.14, written by Peter Selinger 2001-2017
</metadata>
<g transform="translate(0.000000,400.000000) scale(0.100000,-0.100000)"
fill="#000000" stroke="none">
<path d="M1376 3569 c-211 -29 -416 -112 -596 -242 -83 -60 -228 -213 -288
-302 -100 -150 -167 -314 -203 -496 -20 -98 -17 -357 4 -458 40 -186 112 -354
213 -497 67 -96 224 -249 319 -313 142 -95 300 -161 465 -195 l65 -13 59 -84
c192 -273 488 -462 822 -524 116 -22 322 -22 438 0 333 62 627 248 816 517
155 219 231 461 231 733 0 347 -123 645 -366 891 -177 179 -362 283 -610 344
l-110 27 -50 74 c-65 96 -230 261 -325 324 -152 101 -299 163 -475 200 -96 20
-313 28 -409 14z"/>
</g>
</svg>
